<svg width="24" height="24" viewBox="0 0 24 24" fill="none" xmlns="http://www.w3.org/2000/svg">
<path d="M12 2C13.9888 2 15.8283 2.38095 17.5184 3.14284C19.2085 3.90473 20.5447 4.94076 21.5268 6.25089C22.5089 7.56098 23 8.99005 23 10.538C23 12.086 22.5089 13.5171 21.5268 14.8313C20.5447 16.1454 19.2106 17.1834 17.5245 17.9453C15.8385 18.7072 13.997 19.0882 12 19.0882C11.3698 19.0882 10.7191 19.0438 10.048 18.9551C7.13428 20.9465 5.58335 21.9543 5.3951 21.9785C5.30506 22.0108 5.2191 22.0067 5.13727 21.9664C5.10452 21.9422 5.07998 21.91 5.0636 21.8696C5.04723 21.8293 5.03906 21.7931 5.03906 21.7608V21.7125C5.08819 21.398 5.46056 20.0879 6.15626 17.7821C4.57664 17.0081 3.32236 15.9821 2.39342 14.7042C1.46447 13.4264 1 12.0376 1 10.538C1 8.99005 1.49107 7.56098 2.47322 6.25089C3.45536 4.94076 4.79148 3.90473 6.48158 3.14284C8.17168 2.38095 10.0112 2 12 2Z" fill="black"/>
</svg>
