<svg width="64" height="64" viewBox="0 0 64 64" fill="none" xmlns="http://www.w3.org/2000/svg">
<path d="M50.3702 12.9271C49.2801 10.5844 46.1836 9.49426 41.649 9.83059C40.9764 9.87698 40.2689 9.98135 39.5499 10.0857C37.242 8.35773 34.3891 7.31396 31.281 7.31396C23.9167 7.31396 17.9093 13.0894 17.515 20.361C16.9699 20.8365 16.448 21.3236 15.9725 21.799C12.7948 25.0463 11.6467 28.1196 12.7369 30.4623C13.6994 32.515 16.2045 33.6167 19.8692 33.6167C20.3795 33.6167 20.913 33.5935 21.4581 33.5471C22.4322 33.4776 23.4644 33.3268 24.5198 33.1296C26.5261 34.2546 28.8224 34.9156 31.2926 34.9156C38.0538 34.9156 43.6786 30.0448 44.8615 23.6198C49.2221 20.0362 51.8547 16.0584 50.3818 12.9039L50.3702 12.9271ZM21.2377 30.6826C18.1412 30.9261 15.8913 30.3811 15.3695 29.2561C14.8708 28.1776 15.8101 26.2176 17.8165 24.0953C18.3732 26.6119 19.6141 28.8734 21.3305 30.671C21.2957 30.671 21.2725 30.671 21.2377 30.671V30.6826ZM43.7945 24.5128C41.3475 26.3684 38.3786 28.1312 35.2357 29.604C32.058 31.0885 28.7876 32.225 25.7723 32.9093C25.6679 32.9325 25.5519 32.9441 25.4475 32.9441C24.7865 32.9441 24.1834 32.4918 24.0327 31.8075C23.8587 31.0305 24.3458 30.2535 25.1228 30.0795C27.941 29.4417 31.0143 28.3631 34.0064 26.9715C36.9753 25.5914 39.7587 23.933 42.0433 22.2049C42.6812 21.7179 43.5858 21.8454 44.0729 22.4833C44.5599 23.1211 44.4324 24.0257 43.7945 24.5128ZM45.0122 19.6419C44.7339 17.0441 43.7249 14.6783 42.2173 12.7183C42.5768 12.6951 42.9363 12.6719 43.2611 12.6719C45.6385 12.6719 47.3085 13.2054 47.7492 14.1564C48.2595 15.2581 47.3317 17.2993 45.0122 19.6419Z" fill="#0EC4B2"/>
<path d="M14.92 42.236C14.39 41.716 13.77 41.306 13.07 41.006C12.37 40.706 11.62 40.546 10.83 40.546C10.04 40.546 9.24 40.696 8.53 40.996C7.83 41.296 7.21 41.716 6.69 42.236C6.17 42.756 5.76 43.376 5.45 44.086C5.15 44.796 5 45.566 5 46.366V55.156C5 55.156 5 55.176 5 55.186C5 55.636 5.37 56.006 5.82 56.006C6.27 56.006 6.63 55.646 6.64 55.196V50.406C7.07 50.856 7.58 51.236 8.14 51.536C8.93 51.966 9.83 52.176 10.82 52.176C11.61 52.176 12.36 52.026 13.06 51.716C13.75 51.416 14.38 50.996 14.91 50.486C15.44 49.966 15.87 49.346 16.18 48.646C16.49 47.936 16.65 47.166 16.65 46.346C16.65 45.526 16.49 44.776 16.18 44.066C15.87 43.356 15.44 42.736 14.91 42.216L14.92 42.236ZM14.68 47.996C14.46 48.506 14.15 48.956 13.78 49.326C13.41 49.706 12.96 50.006 12.45 50.226C11.94 50.446 11.4 50.556 10.83 50.556C10.26 50.556 9.72 50.446 9.21 50.226C8.7 50.006 8.25 49.696 7.88 49.326C7.5 48.956 7.2 48.506 6.98 47.996C6.76 47.486 6.65 46.946 6.65 46.376C6.65 45.806 6.76 45.266 6.98 44.756C7.2 44.246 7.51 43.796 7.88 43.426C8.25 43.046 8.7 42.746 9.21 42.526C9.72 42.306 10.26 42.196 10.83 42.196C11.4 42.196 11.94 42.306 12.45 42.526C12.96 42.746 13.41 43.056 13.78 43.426C14.16 43.796 14.46 44.246 14.68 44.756C14.9 45.266 15.01 45.806 15.01 46.376C15.01 46.946 14.9 47.486 14.68 47.996Z" fill="#0EC4B2"/>
<path d="M27.38 42.236C26.85 41.716 26.23 41.306 25.53 41.006C24.83 40.706 24.08 40.546 23.29 40.546C22.5 40.546 21.7 40.696 20.99 40.996C20.29 41.296 19.67 41.716 19.15 42.236C18.63 42.756 18.22 43.376 17.91 44.086C17.61 44.796 17.46 45.566 17.46 46.366C17.46 47.166 17.61 47.956 17.91 48.666C18.21 49.366 18.63 49.986 19.15 50.506C19.67 51.026 20.29 51.436 20.99 51.746C21.7 52.046 22.47 52.196 23.28 52.196C24.09 52.196 24.82 52.046 25.52 51.736C26.21 51.436 26.84 51.016 27.37 50.506C27.9 49.986 28.33 49.366 28.64 48.666C28.95 47.956 29.11 47.186 29.11 46.366C29.11 45.546 28.95 44.796 28.64 44.086C28.33 43.376 27.9 42.756 27.37 42.236H27.38ZM27.14 47.996C26.92 48.506 26.61 48.956 26.24 49.326C25.87 49.706 25.42 50.006 24.91 50.226C24.4 50.446 23.86 50.556 23.29 50.556C22.72 50.556 22.18 50.446 21.67 50.226C21.16 50.006 20.71 49.696 20.34 49.326C19.96 48.956 19.66 48.506 19.44 47.996C19.22 47.486 19.11 46.946 19.11 46.376C19.11 45.806 19.22 45.266 19.44 44.756C19.66 44.246 19.97 43.796 20.34 43.426C20.71 43.046 21.16 42.746 21.67 42.526C22.18 42.306 22.72 42.196 23.29 42.196C23.86 42.196 24.4 42.306 24.91 42.526C25.42 42.746 25.87 43.056 26.24 43.426C26.62 43.796 26.92 44.246 27.14 44.756C27.36 45.266 27.47 45.806 27.47 46.376C27.47 46.946 27.36 47.486 27.14 47.996Z" fill="#0EC4B2"/>
<path d="M59.74 46.116C59.73 45.676 59.37 45.316 58.93 45.316C58.49 45.316 58.13 45.676 58.12 46.116V46.376C58.12 46.946 58.01 47.486 57.79 47.996C57.57 48.506 57.26 48.956 56.89 49.326C56.52 49.706 56.07 50.006 55.56 50.226C55.05 50.446 54.51 50.556 53.94 50.556C53.37 50.556 52.83 50.446 52.32 50.226C51.81 50.006 51.36 49.696 50.99 49.326C50.61 48.956 50.31 48.506 50.09 47.996C49.87 47.486 49.76 46.946 49.76 46.376V44.416H53.16C53.6 44.396 53.95 44.036 53.95 43.596C53.95 43.156 53.6 42.796 53.16 42.786H49.76V41.416C49.76 41.416 49.76 41.396 49.76 41.386C49.76 40.936 49.39 40.566 48.94 40.566C48.49 40.566 48.12 40.936 48.12 41.386V46.386C48.12 47.206 48.27 47.976 48.57 48.686C48.87 49.386 49.29 50.006 49.81 50.526C50.33 51.046 50.95 51.456 51.65 51.766C52.36 52.066 53.13 52.216 53.94 52.216C54.75 52.216 55.48 52.066 56.18 51.756C56.87 51.456 57.5 51.036 58.03 50.526C58.56 50.006 58.99 49.386 59.3 48.686C59.61 47.976 59.77 47.206 59.77 46.386V46.126L59.74 46.116Z" fill="#0EC4B2"/>
<path d="M30.74 40.556C30.29 40.556 29.92 40.926 29.92 41.376C29.92 41.386 29.92 41.396 29.92 41.406V51.346C29.92 51.346 29.92 51.366 29.92 51.376C29.92 51.826 30.29 52.196 30.74 52.196C31.19 52.196 31.56 51.826 31.56 51.376V41.376C31.56 40.926 31.19 40.556 30.74 40.556Z" fill="#0EC4B2"/>
<path d="M34.83 41.376C34.83 40.926 34.46 40.556 34.01 40.556C33.56 40.556 33.19 40.926 33.19 41.376C33.19 41.376 33.19 41.376 33.19 41.396V51.366C33.19 51.366 33.19 51.366 33.19 51.386C33.19 51.836 33.56 52.206 34.01 52.206C34.46 52.206 34.83 51.836 34.83 51.386C34.83 51.386 34.83 51.386 34.83 51.366V41.396C34.83 41.396 34.83 41.396 34.83 41.376Z" fill="#0EC4B2"/>
<path d="M47.17 46.256C47.17 45.716 47.11 44.766 46.83 44.096C46.53 43.386 46.11 42.766 45.59 42.246C45.07 41.726 44.45 41.316 43.74 41.006C43.03 40.706 42.26 40.556 41.46 40.556C40.66 40.556 39.87 40.706 39.16 41.006C38.46 41.306 37.84 41.726 37.32 42.246C36.8 42.766 36.39 43.386 36.08 44.096C35.78 44.806 35.63 45.576 35.63 46.376C35.63 47.176 35.78 47.966 36.08 48.676C36.38 49.376 36.8 49.996 37.32 50.516C37.84 51.036 38.46 51.446 39.16 51.756C39.87 52.056 40.64 52.206 41.45 52.206C42.08 52.206 42.71 52.096 43.3 51.886C43.88 51.676 44.43 51.396 44.91 51.036C45.39 50.686 45.92 50.176 46.26 49.726C46.56 49.336 46.54 48.936 46.23 48.606C45.92 48.276 45.39 48.316 45.07 48.666C44.75 49.016 44.17 49.606 43.82 49.846C43.14 50.316 42.35 50.556 41.46 50.556C40.93 50.556 40.43 50.456 39.97 50.276C39.5 50.086 39.07 49.826 38.7 49.506C38.33 49.186 38.01 48.806 37.77 48.356C37.57 47.996 37.43 47.606 37.33 47.186H46.09C46.75 47.186 47.17 46.786 47.17 46.246V46.256ZM37.33 45.556C37.42 45.146 37.57 44.756 37.77 44.396C38.01 43.946 38.32 43.556 38.7 43.236C39.08 42.916 39.5 42.656 39.97 42.466C40.43 42.276 40.93 42.186 41.46 42.186C41.99 42.186 42.47 42.286 42.94 42.466C43.42 42.656 43.85 42.916 44.22 43.236C44.59 43.556 44.91 43.946 45.15 44.396C45.35 44.756 45.49 45.146 45.59 45.556H37.33Z" fill="#0EC4B2"/>
<path d="M23.8355 34.1502C23.2788 34.1502 22.7569 33.9299 22.3742 33.5239L18.5587 29.5461C17.7816 28.7342 17.8048 27.4585 18.6167 26.6815C19.4285 25.9045 20.7042 25.9277 21.4812 26.7395L23.8123 29.1749L30.5735 21.973C31.3389 21.1496 32.6262 21.1148 33.438 21.8802C34.2615 22.6456 34.2963 23.9329 33.5308 24.7448L25.3083 33.5123C24.9256 33.9183 24.3921 34.1502 23.8355 34.1502Z" fill="#FF12E7"/>
</svg>
