<svg width="42" height="42" viewBox="0 0 42 42" fill="none" xmlns="http://www.w3.org/2000/svg">
<path d="M38.9462 13.0513C37.9027 10.8088 34.9386 9.76528 30.598 10.0872C29.9541 10.1316 29.2769 10.2315 28.5886 10.3314C26.3795 8.67734 23.6485 7.67822 20.6734 7.67822C13.624 7.68932 7.87351 13.2178 7.49606 20.1783C6.9743 20.6335 6.47474 21.0998 6.01958 21.5549C2.97781 24.6633 1.86768 27.6162 2.9223 29.8587C3.84372 31.8237 6.24161 32.8783 9.74963 32.8783C10.2381 32.8783 10.7488 32.8561 11.2705 32.8117C12.203 32.7451 13.1911 32.6007 14.2013 32.412C16.1218 33.4889 18.3199 34.1216 20.6845 34.1216C27.1565 34.1216 32.5407 29.4591 33.673 23.3089C37.8471 19.8786 40.3672 16.0708 38.9573 13.0513H38.9462ZM11.0485 30.0474C8.08443 30.2806 5.93077 29.7588 5.43121 28.682C4.95385 27.6495 5.85306 25.7734 7.77359 23.7419C8.30646 26.1509 9.4943 28.3156 11.1373 30.0363C11.104 30.0363 11.0818 30.0363 11.0485 30.0363V30.0474ZM32.6517 24.1415C30.3093 25.9177 27.4674 27.6051 24.4589 29.015C21.4172 30.436 18.2866 31.5239 15.4002 32.1789C15.3003 32.2011 15.1893 32.2122 15.0894 32.2122C14.4566 32.2122 13.8793 31.7793 13.735 31.1243C13.5685 30.3805 14.0348 29.6367 14.7785 29.4702C17.4762 28.8596 20.418 27.8272 23.2822 26.495C26.1241 25.1739 28.7884 23.5865 30.9754 21.9324C31.586 21.4661 32.4519 21.5882 32.9181 22.1988C33.3844 22.8094 33.2623 23.6753 32.6517 24.1415ZM33.8174 19.479C33.5509 16.9923 32.5851 14.7276 31.1419 12.8515C31.4861 12.8292 31.8302 12.807 32.1411 12.807C34.4168 12.807 36.0154 13.3177 36.4373 14.228C36.9257 15.2826 36.0376 17.2365 33.8174 19.479Z" fill="white"/>
<path d="M13.5463 33.3668C13.0134 33.3668 12.5139 33.1559 12.1475 32.7673L8.49517 28.9596C7.75138 28.1825 7.77359 26.9613 8.55068 26.2175C9.32777 25.4737 10.5489 25.4959 11.2927 26.273L13.5241 28.6043L19.9962 21.7104C20.7289 20.9222 21.9611 20.8889 22.7382 21.6216C23.5264 22.3543 23.5597 23.5865 22.827 24.3636L14.9562 32.7562C14.5898 33.1448 14.0792 33.3668 13.5463 33.3668Z" fill="#FF12E7"/>
</svg>
