<svg width="80" height="28" viewBox="0 0 80 28" fill="none" xmlns="http://www.w3.org/2000/svg">
<path d="M17.2444 7.18443C16.5344 6.49443 15.6944 5.93443 14.7644 5.52443C13.8244 5.12443 12.8144 4.91443 11.7544 4.91443C10.6944 4.91443 9.61443 5.12443 8.66443 5.52443C7.71443 5.93443 6.88443 6.49443 6.19443 7.18443C5.49443 7.88443 4.93443 8.71443 4.53443 9.67443C4.12443 10.6344 3.91443 11.6644 3.91443 12.7444V24.5644C3.91443 24.5644 3.91443 24.5944 3.91443 24.6044C3.91443 25.2144 4.40443 25.7044 5.01443 25.7044C5.62443 25.7044 6.10443 25.2244 6.11443 24.6244V18.1844C6.69443 18.7844 7.37443 19.2944 8.13443 19.7044C9.19443 20.2744 10.4144 20.5744 11.7444 20.5744C12.8044 20.5744 13.8144 20.3644 14.7544 19.9644C15.6844 19.5644 16.5244 19.0044 17.2344 18.3044C17.9544 17.6044 18.5244 16.7744 18.9444 15.8344C19.3644 14.8844 19.5744 13.8444 19.5744 12.7444C19.5744 11.6444 19.3644 10.6344 18.9444 9.67443C18.5344 8.72443 17.9544 7.88443 17.2344 7.18443H17.2444ZM16.9244 14.9144C16.6244 15.5944 16.2144 16.2044 15.7144 16.7044C15.2144 17.2044 14.6044 17.6144 13.9244 17.9144C13.2444 18.2144 12.5144 18.3644 11.7444 18.3644C10.9744 18.3644 10.2444 18.2144 9.56443 17.9144C8.88443 17.6144 8.27443 17.2044 7.77443 16.7044C7.27443 16.2044 6.86443 15.5944 6.56443 14.9144C6.26443 14.2344 6.11443 13.5044 6.11443 12.7344C6.11443 11.9644 6.26443 11.2344 6.56443 10.5544C6.86443 9.87443 7.27443 9.26443 7.77443 8.76443C8.27443 8.26443 8.88443 7.85443 9.56443 7.55443C10.2444 7.25443 10.9744 7.10443 11.7444 7.10443C12.5144 7.10443 13.2444 7.25443 13.9244 7.55443C14.6044 7.85443 15.2144 8.26443 15.7144 8.76443C16.2144 9.26443 16.6244 9.87443 16.9244 10.5544C17.2244 11.2344 17.3744 11.9644 17.3744 12.7344C17.3744 13.5044 17.2244 14.2344 16.9244 14.9144Z" fill="#0EC4B2"/>
<path d="M33.9844 7.18443C33.2744 6.49443 32.4344 5.93443 31.5044 5.52443C30.5644 5.12443 29.5544 4.91443 28.4944 4.91443C27.4344 4.91443 26.3544 5.12443 25.4044 5.52443C24.4544 5.93443 23.6244 6.49443 22.9344 7.18443C22.2344 7.88443 21.6744 8.71443 21.2744 9.67443C20.8644 10.6344 20.6644 11.6644 20.6644 12.7444C20.6644 13.8244 20.8744 14.8844 21.2744 15.8344C21.6844 16.7844 22.2444 17.6144 22.9344 18.3044C23.6244 18.9944 24.4644 19.5544 25.4044 19.9644C26.3544 20.3744 27.3944 20.5744 28.4844 20.5744C29.5744 20.5744 30.5544 20.3644 31.4944 19.9644C32.4244 19.5644 33.2644 19.0044 33.9744 18.3044C34.6944 17.6044 35.2644 16.7744 35.6844 15.8344C36.1044 14.8844 36.3144 13.8444 36.3144 12.7444C36.3144 11.6444 36.1044 10.6344 35.6844 9.67443C35.2744 8.72443 34.6944 7.88443 33.9744 7.18443H33.9844ZM33.6744 14.9144C33.3744 15.5944 32.9644 16.2044 32.4644 16.7044C31.9644 17.2044 31.3544 17.6144 30.6744 17.9144C29.9944 18.2144 29.2644 18.3644 28.4944 18.3644C27.7244 18.3644 26.9944 18.2144 26.3144 17.9144C25.6344 17.6144 25.0244 17.2044 24.5244 16.7044C24.0244 16.2044 23.6144 15.5944 23.3144 14.9144C23.0144 14.2344 22.8644 13.5044 22.8644 12.7344C22.8644 11.9644 23.0144 11.2344 23.3144 10.5544C23.6144 9.87443 24.0244 9.26443 24.5244 8.76443C25.0244 8.26443 25.6344 7.85443 26.3144 7.55443C26.9944 7.25443 27.7244 7.10443 28.4944 7.10443C29.2644 7.10443 29.9944 7.25443 30.6744 7.55443C31.3544 7.85443 31.9644 8.26443 32.4644 8.76443C32.9644 9.26443 33.3744 9.87443 33.6744 10.5544C33.9744 11.2344 34.1244 11.9644 34.1244 12.7344C34.1244 13.5044 33.9744 14.2344 33.6744 14.9144Z" fill="#0EC4B2"/>
<path d="M77.4844 12.3844C77.4744 11.7944 76.9844 11.3144 76.3844 11.3144C75.7844 11.3144 75.3044 11.7944 75.2844 12.3844V12.7344C75.2844 13.5044 75.1344 14.2344 74.8344 14.9144C74.5344 15.5944 74.1244 16.2044 73.6244 16.7044C73.1244 17.2044 72.5144 17.6144 71.8344 17.9144C71.1544 18.2144 70.4244 18.3644 69.6544 18.3644C68.8844 18.3644 68.1544 18.2144 67.4744 17.9144C66.7944 17.6144 66.1844 17.2044 65.6844 16.7044C65.1844 16.2044 64.7744 15.5944 64.4744 14.9144C64.1744 14.2344 64.0244 13.5044 64.0244 12.7344V10.0944H68.5844C69.1744 10.0644 69.6444 9.58443 69.6444 8.99443C69.6444 8.40443 69.1744 7.92443 68.5844 7.90443H64.0244V6.06443C64.0244 6.06443 64.0244 6.03443 64.0244 6.02443C64.0444 5.40443 63.5444 4.91443 62.9344 4.91443C62.3244 4.91443 61.8344 5.40443 61.8344 6.01443V12.7344C61.8344 13.8344 62.0444 14.8744 62.4444 15.8244C62.8544 16.7744 63.4144 17.6044 64.1044 18.2944C64.7944 18.9844 65.6344 19.5444 66.5744 19.9544C67.5244 20.3644 68.5644 20.5644 69.6544 20.5644C70.7444 20.5644 71.7244 20.3544 72.6644 19.9544C73.5944 19.5544 74.4344 18.9944 75.1444 18.2944C75.8644 17.5944 76.4344 16.7644 76.8544 15.8244C77.2744 14.8744 77.4844 13.8344 77.4844 12.7344V12.3844Z" fill="#0EC4B2"/>
<path d="M38.5044 4.91443C37.8944 4.91443 37.4044 5.40443 37.4044 6.01443C37.4044 6.02443 37.4044 6.04443 37.4044 6.05443V19.4144C37.4044 19.4144 37.4044 19.4444 37.4044 19.4544C37.4044 20.0644 37.8944 20.5544 38.5044 20.5544C39.1144 20.5544 39.6044 20.0644 39.6044 19.4544V6.01443C39.6144 5.40443 39.1144 4.91443 38.5044 4.91443Z" fill="#0EC4B2"/>
<path d="M44.0044 6.01443C44.0044 5.40443 43.5144 4.91443 42.9044 4.91443C42.2944 4.91443 41.8044 5.40443 41.8044 6.01443C41.8044 6.01443 41.8044 6.02443 41.8044 6.03443V19.4444C41.8044 19.4444 41.8044 19.4544 41.8044 19.4644C41.8044 20.0744 42.2944 20.5644 42.9044 20.5644C43.5144 20.5644 44.0044 20.0744 44.0044 19.4644C44.0044 19.4644 44.0044 19.4544 44.0044 19.4444V6.04443C44.0044 6.04443 44.0044 6.03443 44.0044 6.02443V6.01443Z" fill="#0EC4B2"/>
<path d="M60.5944 12.5744C60.5944 11.8444 60.5144 10.5744 60.1344 9.67443C59.7244 8.71443 59.1744 7.88443 58.4744 7.18443C57.7744 6.48443 56.9444 5.92443 55.9844 5.52443C55.0244 5.11443 53.9944 4.91443 52.9144 4.91443C51.8344 4.91443 50.7744 5.12443 49.8244 5.52443C48.8744 5.93443 48.0444 6.49443 47.3544 7.18443C46.6544 7.88443 46.0944 8.71443 45.6944 9.67443C45.2844 10.6344 45.0844 11.6644 45.0844 12.7444C45.0844 13.8244 45.2944 14.8844 45.6944 15.8344C46.1044 16.7844 46.6644 17.6144 47.3544 18.3044C48.0444 18.9944 48.8844 19.5544 49.8244 19.9644C50.7744 20.3744 51.8144 20.5744 52.9044 20.5744C53.7544 20.5744 54.5944 20.4344 55.3844 20.1544C56.1644 19.8744 56.8944 19.4944 57.5544 19.0144C58.1944 18.5444 58.9044 17.8644 59.3644 17.2544C59.7644 16.7344 59.7444 16.1944 59.3244 15.7444C58.9044 15.2944 58.1944 15.3544 57.7644 15.8244C57.3344 16.2944 56.5544 17.0844 56.0844 17.4144C55.1744 18.0444 54.1044 18.3644 52.9044 18.3644C52.1944 18.3644 51.5244 18.2344 50.8944 17.9844C50.2644 17.7344 49.6844 17.3844 49.1844 16.9544C48.6844 16.5244 48.2644 16.0044 47.9344 15.4144C47.6644 14.9344 47.4744 14.4044 47.3444 13.8444H59.1244C60.0044 13.8444 60.5844 13.3044 60.5844 12.5744H60.5944ZM47.3644 11.6444C47.4944 11.0944 47.6844 10.5744 47.9544 10.0844C48.2744 9.48443 48.7044 8.95443 49.2044 8.52443C49.7144 8.09443 50.2844 7.74443 50.9144 7.49443C51.5344 7.24443 52.2044 7.11443 52.9144 7.11443C53.6244 7.11443 54.2744 7.24443 54.9044 7.49443C55.5444 7.74443 56.1244 8.09443 56.6344 8.52443C57.1344 8.95443 57.5544 9.47443 57.8844 10.0844C58.1444 10.5744 58.3444 11.0944 58.4744 11.6444H47.3644Z" fill="#0EC4B2"/>
</svg>
