<svg width="80" height="28" viewBox="0 0 80 28" fill="none" xmlns="http://www.w3.org/2000/svg">
<path d="M16.33 7.66526C15.62 6.97526 14.78 6.41526 13.85 6.00526C12.91 5.60526 11.9 5.39526 10.84 5.39526C9.78 5.39526 8.7 5.60526 7.75 6.00526C6.8 6.41526 5.97 6.97526 5.28 7.66526C4.58 8.36526 4.02 9.19526 3.62 10.1553C3.21 11.1153 3 12.1453 3 13.2253V25.0453C3 25.0453 3 25.0753 3 25.0853C3 25.6953 3.49 26.1853 4.1 26.1853C4.71 26.1853 5.19 25.7053 5.2 25.1053V18.6653C5.78 19.2653 6.46 19.7753 7.22 20.1853C8.28 20.7553 9.5 21.0553 10.83 21.0553C11.89 21.0553 12.9 20.8453 13.84 20.4453C14.77 20.0453 15.61 19.4853 16.32 18.7853C17.04 18.0853 17.61 17.2553 18.03 16.3153C18.45 15.3653 18.66 14.3253 18.66 13.2253C18.66 12.1253 18.45 11.1153 18.03 10.1553C17.62 9.20526 17.04 8.36526 16.32 7.66526H16.33ZM16.01 15.3953C15.71 16.0753 15.3 16.6853 14.8 17.1853C14.3 17.6853 13.69 18.0953 13.01 18.3953C12.33 18.6953 11.6 18.8453 10.83 18.8453C10.06 18.8453 9.33 18.6953 8.65 18.3953C7.97 18.0953 7.36 17.6853 6.86 17.1853C6.36 16.6853 5.95 16.0753 5.65 15.3953C5.35 14.7153 5.2 13.9853 5.2 13.2153C5.2 12.4453 5.35 11.7153 5.65 11.0353C5.95 10.3553 6.36 9.74526 6.86 9.24526C7.36 8.74526 7.97 8.33526 8.65 8.03526C9.33 7.73526 10.06 7.58526 10.83 7.58526C11.6 7.58526 12.33 7.73526 13.01 8.03526C13.69 8.33526 14.3 8.74526 14.8 9.24526C15.3 9.74526 15.71 10.3553 16.01 11.0353C16.31 11.7153 16.46 12.4453 16.46 13.2153C16.46 13.9853 16.31 14.7153 16.01 15.3953Z" fill="white"/>
<path d="M33.07 7.66526C32.36 6.97526 31.52 6.41526 30.59 6.00526C29.65 5.60526 28.64 5.39526 27.58 5.39526C26.52 5.39526 25.44 5.60526 24.49 6.00526C23.54 6.41526 22.71 6.97526 22.02 7.66526C21.32 8.36526 20.76 9.19526 20.36 10.1553C19.95 11.1153 19.75 12.1453 19.75 13.2253C19.75 14.3053 19.96 15.3653 20.36 16.3153C20.77 17.2653 21.33 18.0953 22.02 18.7853C22.71 19.4753 23.55 20.0353 24.49 20.4453C25.44 20.8553 26.48 21.0553 27.57 21.0553C28.66 21.0553 29.64 20.8453 30.58 20.4453C31.51 20.0453 32.35 19.4853 33.06 18.7853C33.78 18.0853 34.35 17.2553 34.77 16.3153C35.19 15.3653 35.4 14.3253 35.4 13.2253C35.4 12.1253 35.19 11.1153 34.77 10.1553C34.36 9.20526 33.78 8.36526 33.06 7.66526H33.07ZM32.76 15.3953C32.46 16.0753 32.05 16.6853 31.55 17.1853C31.05 17.6853 30.44 18.0953 29.76 18.3953C29.08 18.6953 28.35 18.8453 27.58 18.8453C26.81 18.8453 26.08 18.6953 25.4 18.3953C24.72 18.0953 24.11 17.6853 23.61 17.1853C23.11 16.6853 22.7 16.0753 22.4 15.3953C22.1 14.7153 21.95 13.9853 21.95 13.2153C21.95 12.4453 22.1 11.7153 22.4 11.0353C22.7 10.3553 23.11 9.74526 23.61 9.24526C24.11 8.74526 24.72 8.33526 25.4 8.03526C26.08 7.73526 26.81 7.58526 27.58 7.58526C28.35 7.58526 29.08 7.73526 29.76 8.03526C30.44 8.33526 31.05 8.74526 31.55 9.24526C32.05 9.74526 32.46 10.3553 32.76 11.0353C33.06 11.7153 33.21 12.4453 33.21 13.2153C33.21 13.9853 33.06 14.7153 32.76 15.3953Z" fill="white"/>
<path d="M76.57 12.8653C76.56 12.2753 76.07 11.7953 75.47 11.7953C74.87 11.7953 74.39 12.2753 74.37 12.8653V13.2153C74.37 13.9853 74.22 14.7153 73.92 15.3953C73.62 16.0753 73.21 16.6853 72.71 17.1853C72.21 17.6853 71.6 18.0953 70.92 18.3953C70.24 18.6953 69.51 18.8453 68.74 18.8453C67.97 18.8453 67.24 18.6953 66.56 18.3953C65.88 18.0953 65.27 17.6853 64.77 17.1853C64.27 16.6853 63.86 16.0753 63.56 15.3953C63.26 14.7153 63.11 13.9853 63.11 13.2153V10.5753H67.67C68.26 10.5453 68.73 10.0653 68.73 9.47526C68.73 8.88526 68.26 8.40526 67.67 8.38526H63.11V6.54526C63.11 6.54526 63.11 6.51526 63.11 6.50526C63.13 5.88526 62.63 5.39526 62.02 5.39526C61.41 5.39526 60.92 5.88526 60.92 6.49526V13.2153C60.92 14.3153 61.13 15.3553 61.53 16.3053C61.94 17.2553 62.5 18.0853 63.19 18.7753C63.88 19.4653 64.72 20.0253 65.66 20.4353C66.61 20.8453 67.65 21.0453 68.74 21.0453C69.83 21.0453 70.81 20.8353 71.75 20.4353C72.68 20.0353 73.5201 19.4753 74.23 18.7753C74.9501 18.0753 75.5201 17.2453 75.94 16.3053C76.36 15.3553 76.57 14.3153 76.57 13.2153V12.8653Z" fill="white"/>
<path d="M37.59 5.39526C36.98 5.39526 36.49 5.88526 36.49 6.49526C36.49 6.50526 36.49 6.52526 36.49 6.53526V19.8953C36.49 19.8953 36.49 19.9253 36.49 19.9353C36.49 20.5453 36.98 21.0353 37.59 21.0353C38.2 21.0353 38.69 20.5453 38.69 19.9353V6.49526C38.7 5.88526 38.2 5.39526 37.59 5.39526Z" fill="white"/>
<path d="M43.09 6.49526C43.09 5.88526 42.6 5.39526 41.99 5.39526C41.38 5.39526 40.89 5.88526 40.89 6.49526C40.89 6.49526 40.89 6.50526 40.89 6.51526V19.9253C40.89 19.9253 40.89 19.9353 40.89 19.9453C40.89 20.5553 41.38 21.0453 41.99 21.0453C42.6 21.0453 43.09 20.5553 43.09 19.9453C43.09 19.9453 43.09 19.9353 43.09 19.9253V6.52526C43.09 6.52526 43.09 6.51526 43.09 6.50526V6.49526Z" fill="white"/>
<path d="M59.68 13.0553C59.68 12.3253 59.6 11.0553 59.22 10.1553C58.81 9.19526 58.26 8.36526 57.56 7.66526C56.86 6.96526 56.03 6.40526 55.07 6.00526C54.11 5.59526 53.08 5.39526 52 5.39526C50.92 5.39526 49.86 5.60526 48.91 6.00526C47.96 6.41526 47.13 6.97526 46.44 7.66526C45.74 8.36526 45.18 9.19526 44.78 10.1553C44.37 11.1153 44.17 12.1453 44.17 13.2253C44.17 14.3053 44.38 15.3653 44.78 16.3153C45.19 17.2653 45.75 18.0953 46.44 18.7853C47.13 19.4753 47.97 20.0353 48.91 20.4453C49.86 20.8553 50.9 21.0553 51.99 21.0553C52.84 21.0553 53.68 20.9153 54.47 20.6353C55.25 20.3553 55.98 19.9753 56.64 19.4953C57.28 19.0253 57.99 18.3453 58.45 17.7353C58.85 17.2153 58.83 16.6753 58.41 16.2253C57.99 15.7753 57.28 15.8353 56.85 16.3053C56.42 16.7753 55.64 17.5653 55.17 17.8953C54.26 18.5253 53.19 18.8453 51.99 18.8453C51.28 18.8453 50.61 18.7153 49.98 18.4653C49.35 18.2153 48.77 17.8653 48.27 17.4353C47.77 17.0053 47.35 16.4853 47.02 15.8953C46.75 15.4153 46.56 14.8853 46.43 14.3253H58.21C59.09 14.3253 59.67 13.7853 59.67 13.0553H59.68ZM46.45 12.1253C46.58 11.5753 46.77 11.0553 47.04 10.5653C47.36 9.96526 47.79 9.43526 48.29 9.00526C48.8 8.57526 49.37 8.22526 50 7.97526C50.62 7.72526 51.29 7.59526 52 7.59526C52.71 7.59526 53.36 7.72526 53.99 7.97526C54.63 8.22526 55.21 8.57526 55.72 9.00526C56.22 9.43526 56.64 9.95526 56.97 10.5653C57.23 11.0553 57.43 11.5753 57.56 12.1253H46.45Z" fill="white"/>
<path d="M27.24 16.4052C26.9 16.4052 26.57 16.2652 26.34 16.0252L23.05 12.5952C22.57 12.0952 22.59 11.3052 23.09 10.8252C23.59 10.3452 24.38 10.3652 24.86 10.8652L27.24 13.3452L33.43 6.74524C33.9 6.24524 34.69 6.21524 35.2 6.68524C35.71 7.15524 35.73 7.94524 35.26 8.45524L28.17 16.0152C27.93 16.2652 27.61 16.4052 27.27 16.4152L27.24 16.4052Z" fill="#FF12E7"/>
</svg>
