<svg width="120" height="28" viewBox="0 0 120 28" fill="none" xmlns="http://www.w3.org/2000/svg">
<path d="M55.53 8.45921C54.82 7.76921 53.98 7.20921 53.05 6.79921C52.11 6.38921 51.1 6.18921 50.04 6.18921C48.98 6.18921 47.9 6.39921 46.95 6.79921C46 7.20921 45.17 7.76921 44.48 8.45921C43.78 9.15921 43.22 9.98921 42.82 10.9492C42.41 11.9092 42.21 12.9392 42.21 14.0192V25.8392C42.21 25.8392 42.21 25.8692 42.21 25.8792C42.21 26.4892 42.7 26.9792 43.31 26.9792C43.92 26.9792 44.4 26.4992 44.41 25.8992V19.4592C44.99 20.0592 45.67 20.5692 46.43 20.9792C47.49 21.5492 48.71 21.8492 50.04 21.8492C51.1 21.8492 52.11 21.6392 53.05 21.2392C53.98 20.8392 54.82 20.2792 55.53 19.5792C56.25 18.8792 56.82 18.0492 57.24 17.1092C57.66 16.1592 57.87 15.1192 57.87 14.0192C57.87 12.9192 57.66 11.9092 57.24 10.9492C56.83 9.99921 56.25 9.15921 55.53 8.45921ZM55.21 16.1892C54.91 16.8692 54.5 17.4792 54 17.9792C53.5 18.4792 52.89 18.8892 52.21 19.1892C51.53 19.4892 50.8 19.6392 50.03 19.6392C49.26 19.6392 48.53 19.4892 47.85 19.1892C47.17 18.8892 46.56 18.4792 46.06 17.9792C45.56 17.4792 45.15 16.8692 44.85 16.1892C44.55 15.5092 44.4 14.7792 44.4 14.0092C44.4 13.2392 44.55 12.5092 44.85 11.8292C45.15 11.1492 45.56 10.5392 46.06 10.0392C46.56 9.53921 47.17 9.12921 47.85 8.82921C48.53 8.52921 49.26 8.37921 50.03 8.37921C50.8 8.37921 51.53 8.52921 52.21 8.82921C52.89 9.12921 53.5 9.53921 54 10.0392C54.5 10.5392 54.91 11.1492 55.21 11.8292C55.51 12.5092 55.66 13.2392 55.66 14.0092C55.66 14.7792 55.51 15.5092 55.21 16.1892Z" fill="white"/>
<path d="M72.27 8.45921C71.56 7.76921 70.72 7.20921 69.79 6.79921C68.85 6.38921 67.84 6.18921 66.78 6.18921C65.72 6.18921 64.64 6.39921 63.69 6.79921C62.74 7.20921 61.91 7.76921 61.22 8.45921C60.52 9.15921 59.96 9.98921 59.56 10.9492C59.15 11.9092 58.95 12.9392 58.95 14.0192C58.95 15.0992 59.16 16.1592 59.56 17.1092C59.97 18.0592 60.53 18.8892 61.22 19.5792C61.91 20.2692 62.75 20.8292 63.69 21.2392C64.64 21.6492 65.68 21.8492 66.77 21.8492C67.86 21.8492 68.84 21.6392 69.78 21.2392C70.71 20.8392 71.55 20.2792 72.26 19.5792C72.98 18.8792 73.55 18.0492 73.97 17.1092C74.39 16.1592 74.6 15.1192 74.6 14.0192C74.6 12.9192 74.39 11.9092 73.97 10.9492C73.56 9.99921 72.98 9.15921 72.26 8.45921H72.27ZM71.96 16.1892C71.66 16.8692 71.25 17.4792 70.75 17.9792C70.25 18.4792 69.64 18.8892 68.96 19.1892C68.28 19.4892 67.55 19.6392 66.78 19.6392C66.01 19.6392 65.28 19.4892 64.6 19.1892C63.92 18.8892 63.31 18.4792 62.81 17.9792C62.31 17.4792 61.9 16.8692 61.6 16.1892C61.3 15.5092 61.15 14.7792 61.15 14.0092C61.15 13.2392 61.3 12.5092 61.6 11.8292C61.9 11.1492 62.31 10.5392 62.81 10.0392C63.31 9.53921 63.92 9.12921 64.6 8.82921C65.28 8.52921 66.01 8.37921 66.78 8.37921C67.55 8.37921 68.28 8.52921 68.96 8.82921C69.64 9.12921 70.25 9.53921 70.75 10.0392C71.25 10.5392 71.66 11.1492 71.96 11.8292C72.26 12.5092 72.41 13.2392 72.41 14.0092C72.41 14.7792 72.26 15.5092 71.96 16.1892Z" fill="white"/>
<path d="M115.77 13.6692C115.76 13.0792 115.27 12.5992 114.67 12.5992C114.07 12.5992 113.59 13.0792 113.57 13.6692V14.0192C113.57 14.7892 113.42 15.5192 113.12 16.1992C112.82 16.8792 112.41 17.4892 111.91 17.9892C111.41 18.4892 110.8 18.8992 110.12 19.1992C109.44 19.4992 108.71 19.6492 107.94 19.6492C107.17 19.6492 106.44 19.4992 105.76 19.1992C105.08 18.8992 104.47 18.4892 103.97 17.9892C103.47 17.4892 103.06 16.8792 102.76 16.1992C102.46 15.5192 102.31 14.7892 102.31 14.0192V11.3792H106.87C107.46 11.3492 107.93 10.8692 107.93 10.2792C107.93 9.6892 107.46 9.2092 106.87 9.1892H102.31V7.3492C102.31 7.3492 102.31 7.3192 102.31 7.3092C102.31 6.6992 101.82 6.2092 101.21 6.2092C100.6 6.2092 100.11 6.6992 100.11 7.3092V14.0292C100.11 15.1292 100.32 16.1692 100.72 17.1192C101.13 18.0692 101.69 18.8992 102.38 19.5892C103.07 20.2792 103.91 20.8392 104.85 21.2492C105.8 21.6592 106.84 21.8592 107.93 21.8592C109.02 21.8592 110 21.6492 110.94 21.2492C111.87 20.8492 112.71 20.2892 113.42 19.5892C114.14 18.8892 114.71 18.0592 115.13 17.1192C115.55 16.1692 115.76 15.1292 115.76 14.0292V13.6792L115.77 13.6692Z" fill="white"/>
<path d="M76.79 6.18921C76.18 6.18921 75.69 6.67921 75.69 7.28921C75.69 7.29921 75.69 7.31921 75.69 7.32921V20.6892C75.69 20.6892 75.69 20.7192 75.69 20.7292C75.69 21.3392 76.18 21.8292 76.79 21.8292C77.4 21.8292 77.89 21.3392 77.89 20.7292V7.28921C77.89 6.67921 77.4 6.18921 76.79 6.18921Z" fill="white"/>
<path d="M82.29 7.28921C82.29 6.67921 81.8 6.18921 81.19 6.18921C80.58 6.18921 80.09 6.67921 80.09 7.28921C80.09 7.28921 80.09 7.29921 80.09 7.30921V20.7192C80.09 20.7192 80.09 20.7292 80.09 20.7392C80.09 21.3492 80.58 21.8392 81.19 21.8392C81.8 21.8392 82.29 21.3492 82.29 20.7392C82.29 20.7392 82.29 20.7292 82.29 20.7192V7.31921C82.29 7.31921 82.29 7.30921 82.29 7.29921V7.28921Z" fill="white"/>
<path d="M98.88 13.8492C98.88 13.1192 98.8 11.8492 98.42 10.9492C98.01 9.98921 97.46 9.15921 96.76 8.45921C96.06 7.75921 95.23 7.19921 94.27 6.79921C93.31 6.38921 92.28 6.18921 91.2 6.18921C90.12 6.18921 89.06 6.39921 88.11 6.79921C87.16 7.20921 86.33 7.76921 85.64 8.45921C84.94 9.15921 84.38 9.98921 83.98 10.9492C83.57 11.9092 83.37 12.9392 83.37 14.0192C83.37 15.0992 83.58 16.1592 83.98 17.1092C84.39 18.0592 84.95 18.8892 85.64 19.5792C86.33 20.2692 87.17 20.8292 88.11 21.2392C89.06 21.6492 90.1 21.8492 91.19 21.8492C92.04 21.8492 92.88 21.7092 93.67 21.4292C94.45 21.1492 95.18 20.7692 95.84 20.2892C96.48 19.8192 97.19 19.1392 97.65 18.5292C98.05 18.0092 98.03 17.4692 97.61 17.0192C97.19 16.5692 96.48 16.6292 96.05 17.0992C95.62 17.5692 94.84 18.3592 94.37 18.6892C93.46 19.3192 92.39 19.6392 91.19 19.6392C90.48 19.6392 89.81 19.5092 89.18 19.2592C88.55 19.0092 87.97 18.6592 87.47 18.2292C86.97 17.7992 86.55 17.2792 86.22 16.6892C85.95 16.2092 85.76 15.6792 85.63 15.1192H97.41C98.29 15.1192 98.87 14.5792 98.87 13.8492H98.88ZM85.65 12.9192C85.78 12.3692 85.97 11.8492 86.24 11.3592C86.56 10.7592 86.99 10.2292 87.49 9.79921C88 9.36921 88.57 9.01921 89.2 8.76921C89.82 8.51921 90.49 8.38921 91.2 8.38921C91.91 8.38921 92.56 8.51921 93.19 8.76921C93.83 9.01921 94.41 9.36921 94.92 9.79921C95.42 10.2292 95.84 10.7492 96.17 11.3592C96.43 11.8492 96.63 12.3692 96.76 12.9192H85.65Z" fill="white"/>
<path d="M36.8 6.82999C35.86 4.80999 33.19 3.86999 29.28 4.15999C28.7 4.19999 28.09 4.28999 27.47 4.37999C25.48 2.88999 23.02 1.98999 20.34 1.98999C13.99 1.99999 8.81003 6.97999 8.47003 13.25C8.00003 13.66 7.55003 14.08 7.14003 14.49C4.40003 17.29 3.40003 19.95 4.35003 21.97C5.18003 23.74 7.34003 24.69 10.5 24.69C10.94 24.69 11.4 24.67 11.87 24.63C12.71 24.57 13.6 24.44 14.51 24.27C16.24 25.24 18.22 25.81 20.35 25.81C26.18 25.81 31.03 21.61 32.05 16.07C35.81 12.98 38.08 9.54999 36.81 6.82999H36.8ZM11.67 22.14C9.00003 22.35 7.06003 21.88 6.61003 20.91C6.18003 19.98 6.99003 18.29 8.72003 16.46C9.20003 18.63 10.27 20.58 11.75 22.13C11.72 22.13 11.7 22.13 11.67 22.13V22.14ZM31.13 16.82C29.02 18.42 26.46 19.94 23.75 21.21C21.01 22.49 18.19 23.47 15.59 24.06C15.5 24.08 15.4 24.09 15.31 24.09C14.74 24.09 14.22 23.7 14.09 23.11C13.94 22.44 14.36 21.77 15.03 21.62C17.46 21.07 20.11 20.14 22.69 18.94C25.25 17.75 27.65 16.32 29.62 14.83C30.17 14.41 30.95 14.52 31.37 15.07C31.79 15.62 31.68 16.4 31.13 16.82ZM32.18 12.62C31.94 10.38 31.07 8.33999 29.77 6.64999C30.08 6.62999 30.39 6.60999 30.67 6.60999C32.72 6.60999 34.16 7.06999 34.54 7.88999C34.98 8.83999 34.18 10.6 32.18 12.62Z" fill="white"/>
<path d="M13.92 25.13C13.44 25.13 12.99 24.94 12.66 24.59L9.37001 21.16C8.70001 20.46 8.72001 19.36 9.42001 18.69C10.12 18.02 11.22 18.04 11.89 18.74L13.9 20.84L19.73 14.63C20.39 13.92 21.5 13.89 22.2 14.55C22.91 15.21 22.94 16.32 22.28 17.02L15.19 24.58C14.86 24.93 14.4 25.13 13.92 25.13Z" fill="#FF12E7"/>
</svg>
