<svg width="56" height="56" viewBox="0 0 56 56" fill="none" xmlns="http://www.w3.org/2000/svg">
<path d="M7.37875 2.28125C4.63 2.485 2.5225 4.4375 2.2325 7.17875C1.9775 9.59875 1.75 13.1225 1.75 18C1.75 22.8775 1.9775 26.4 2.2325 28.8212C2.5225 31.5625 4.63 33.515 7.37875 33.7188C10.91 33.9813 16.9325 34.25 26.75 34.25C28.875 34.25 30.8225 34.2375 32.605 34.215L32.6088 34.1375C32.7089 32.0001 33.4286 29.938 34.6802 28.2026C35.9318 26.4671 37.6612 25.1331 39.6576 24.3633C41.6541 23.5935 43.8313 23.4211 45.9241 23.8671C48.0168 24.313 49.9346 25.3581 51.4438 26.875C51.6188 24.625 51.75 21.7025 51.75 18C51.75 13.1225 51.5225 9.6 51.2675 7.17875C50.9775 4.4375 48.87 2.485 46.1213 2.28125C42.59 2.01875 36.5675 1.75 26.75 1.75C16.9325 1.75 10.91 2.02 7.37875 2.28125Z" fill="#B4EDE5"/>
<path d="M33.08 43.2875C33.195 41.1025 34.7338 39.59 36.9163 39.4388C38.4462 39.3338 40.6088 39.25 43.625 39.25C46.8163 39.25 49.04 39.3438 50.5663 39.4575C52.5625 39.6075 53.995 40.9612 54.135 42.9575C54.2025 43.92 54.25 45.16 54.25 46.75C54.2556 48.0147 54.2172 49.2792 54.135 50.5413C53.995 52.5388 52.5625 53.8925 50.5663 54.0413C49.0413 54.1562 46.8163 54.25 43.625 54.25C40.4338 54.25 38.21 54.1562 36.6838 54.0425C34.6875 53.8925 33.255 52.5388 33.115 50.5425C33.0326 49.2801 32.9943 48.0151 33 46.75C33 45.335 33.0325 44.1975 33.08 43.2875Z" fill="white"/>
<path d="M36.75 18C36.75 18.9946 37.1451 19.9484 37.8483 20.6517C38.5516 21.3549 39.5054 21.75 40.5 21.75C41.4946 21.75 42.4484 21.3549 43.1516 20.6517C43.8549 19.9484 44.25 18.9946 44.25 18C44.25 17.0054 43.8549 16.0516 43.1516 15.3483C42.4484 14.6451 41.4946 14.25 40.5 14.25C39.5054 14.25 38.5516 14.6451 37.8483 15.3483C37.1451 16.0516 36.75 17.0054 36.75 18Z" fill="white"/>
<path d="M23 18C23 18.9946 23.3951 19.9484 24.0983 20.6517C24.8016 21.3549 25.7554 21.75 26.75 21.75C27.7446 21.75 28.6984 21.3549 29.4017 20.6517C30.1049 19.9484 30.5 18.9946 30.5 18C30.5 17.0054 30.1049 16.0516 29.4017 15.3483C28.6984 14.6451 27.7446 14.25 26.75 14.25C25.7554 14.25 24.8016 14.6451 24.0983 15.3483C23.3951 16.0516 23 17.0054 23 18Z" fill="white"/>
<path d="M9.25 18C9.25 18.9946 9.64509 19.9484 10.3483 20.6517C11.0516 21.3549 12.0054 21.75 13 21.75C13.9946 21.75 14.9484 21.3549 15.6517 20.6517C16.3549 19.9484 16.75 18.9946 16.75 18C16.75 17.0054 16.3549 16.0516 15.6517 15.3483C14.9484 14.6451 13.9946 14.25 13 14.25C12.0054 14.25 11.0516 14.6451 10.3483 15.3483C9.64509 16.0516 9.25 17.0054 9.25 18Z" fill="white"/>
<path d="M51.54 25.5C51.665 23.47 51.75 20.99 51.75 18C51.75 13.1225 51.5225 9.6 51.2675 7.17875C50.9775 4.4375 48.87 2.485 46.1213 2.28125C42.59 2.01875 36.5675 1.75 26.75 1.75C16.9325 1.75 10.91 2.02 7.37875 2.28125C4.63 2.485 2.5225 4.4375 2.2325 7.17875C1.9775 9.59875 1.75 13.1225 1.75 18C1.75 22.8775 1.9775 26.4 2.2325 28.8212C2.5225 31.5625 4.63 33.515 7.37875 33.7188C10.91 33.9813 16.9325 34.25 26.75 34.25C28.54 34.25 30.2038 34.2412 31.75 34.225" stroke="#434447" stroke-width="3" stroke-linecap="round" stroke-linejoin="round"/>
<path d="M33.08 43.2875C33.195 41.1025 34.7338 39.59 36.9163 39.4388C38.4463 39.3338 40.6088 39.25 43.625 39.25C46.8163 39.25 49.04 39.3438 50.5663 39.4575C52.5625 39.6075 53.995 40.9612 54.135 42.9575C54.2025 43.92 54.25 45.16 54.25 46.75C54.2556 48.0147 54.2172 49.2792 54.135 50.5413C53.995 52.5388 52.5625 53.8925 50.5663 54.0413C49.0413 54.1563 46.8163 54.25 43.625 54.25C40.4338 54.25 38.21 54.1562 36.6838 54.0425C34.6875 53.8925 33.255 52.5388 33.115 50.5425C33.0326 49.2801 32.9943 48.0151 33 46.75C33 45.335 33.0325 44.1975 33.08 43.2875Z" stroke="#434447" stroke-width="3" stroke-linecap="round" stroke-linejoin="round"/>
<path d="M43.625 45.5V48" stroke="#434447" stroke-width="3" stroke-linecap="round" stroke-linejoin="round"/>
<path d="M49.25 39.25L49.0225 34.4C48.9558 33.0135 48.358 31.7057 47.353 30.748C46.3481 29.7903 45.0132 29.2561 43.625 29.2561C42.2368 29.2561 40.9019 29.7903 39.897 30.748C38.8921 31.7057 38.2942 33.0135 38.2275 34.4L38 39.25" stroke="#434447" stroke-width="3" stroke-linecap="round" stroke-linejoin="round"/>
<path d="M9.25 18C9.25 18.9946 9.64509 19.9484 10.3483 20.6517C11.0516 21.3549 12.0054 21.75 13 21.75C13.9946 21.75 14.9484 21.3549 15.6517 20.6517C16.3549 19.9484 16.75 18.9946 16.75 18C16.75 17.0054 16.3549 16.0516 15.6517 15.3483C14.9484 14.6451 13.9946 14.25 13 14.25C12.0054 14.25 11.0516 14.6451 10.3483 15.3483C9.64509 16.0516 9.25 17.0054 9.25 18Z" stroke="#434447" stroke-width="3" stroke-linecap="round" stroke-linejoin="round"/>
<path d="M23 18C23 18.9946 23.3951 19.9484 24.0983 20.6517C24.8016 21.3549 25.7554 21.75 26.75 21.75C27.7446 21.75 28.6984 21.3549 29.4017 20.6517C30.1049 19.9484 30.5 18.9946 30.5 18C30.5 17.0054 30.1049 16.0516 29.4017 15.3483C28.6984 14.6451 27.7446 14.25 26.75 14.25C25.7554 14.25 24.8016 14.6451 24.0983 15.3483C23.3951 16.0516 23 17.0054 23 18Z" stroke="#434447" stroke-width="3" stroke-linecap="round" stroke-linejoin="round"/>
<path d="M36.75 18C36.75 18.9946 37.1451 19.9484 37.8483 20.6517C38.5516 21.3549 39.5054 21.75 40.5 21.75C41.4946 21.75 42.4484 21.3549 43.1516 20.6517C43.8549 19.9484 44.25 18.9946 44.25 18C44.25 17.0054 43.8549 16.0516 43.1516 15.3483C42.4484 14.6451 41.4946 14.25 40.5 14.25C39.5054 14.25 38.5516 14.6451 37.8483 15.3483C37.1451 16.0516 36.75 17.0054 36.75 18Z" stroke="#434447" stroke-width="3" stroke-linecap="round" stroke-linejoin="round"/>
</svg>
