<svg width="56" height="56" viewBox="0 0 56 56" fill="none" xmlns="http://www.w3.org/2000/svg">
<path d="M47.9413 2.1925C51.1375 2.42 53.5788 4.8625 53.8075 8.06C54.0363 11.2537 54.25 15.96 54.25 22.375C54.25 28.7912 54.0363 33.4962 53.8075 36.6912C53.58 39.8875 51.1375 42.3287 47.94 42.5575C46.5363 42.6575 44.84 42.7562 42.8338 42.8337C42.9338 40.2775 43 37.22 43 33.625C43 27.2087 42.7863 22.5037 42.5575 19.3087C42.33 16.1125 39.8875 13.6712 36.69 13.4425C33.4975 13.2125 28.7925 13 22.375 13C18.78 13 15.7225 13.0675 13.1663 13.1662C13.2438 11.16 13.3413 9.46375 13.4413 8.06C13.67 4.8625 16.1125 2.42 19.31 2.1925C22.5038 1.9625 27.21 1.75 33.625 1.75C40.0413 1.75 44.7463 1.96375 47.9413 2.1925Z" fill="#B4EDE5"/>
<path d="M42.5575 19.3088C42.33 16.1125 39.8875 13.6713 36.69 13.4425C33.4962 13.2125 28.79 13 22.375 13C15.9588 13 11.2538 13.2138 8.06 13.4425C4.8625 13.67 2.42 16.1125 2.1925 19.31C1.9625 22.5025 1.75 27.2088 1.75 33.625C1.75 40.0412 1.96375 44.7462 2.1925 47.9412C2.42 51.1375 4.8625 53.5787 8.06 53.8075C11.2538 54.0362 15.96 54.25 22.375 54.25C28.7912 54.25 33.4962 54.0362 36.69 53.8075C39.8875 53.58 42.33 51.1375 42.5575 47.94C42.7862 44.7462 43 40.04 43 33.625C43 27.2088 42.7862 22.5038 42.5575 19.3088Z" fill="white"/>
<path d="M20.385 22.4663C19.0575 22.5988 18.2 23.7013 18.1413 25.035C18.0988 26.02 18.0563 27.3975 18.0288 29.2788C16.6137 29.2964 15.199 29.3339 13.785 29.3913C12.4525 29.45 11.3475 30.3075 11.2162 31.635C11.1625 32.18 11.125 32.8388 11.125 33.625C11.125 34.41 11.1625 35.07 11.2162 35.615C11.3487 36.9425 12.4525 37.8 13.785 37.8588C14.77 37.9013 16.1475 37.9438 18.0288 37.9713C18.0563 39.8513 18.0988 41.23 18.1413 42.215C18.2 43.5475 19.0575 44.6525 20.385 44.7838C20.93 44.8375 21.5887 44.875 22.375 44.875C23.16 44.875 23.82 44.8375 24.365 44.7838C25.6925 44.6513 26.55 43.5475 26.6087 42.215C26.6512 41.23 26.6937 39.8525 26.7212 37.9713C28.1363 37.9536 29.551 37.9161 30.965 37.8588C32.2987 37.8 33.4025 36.9425 33.5338 35.615C33.5875 35.07 33.625 34.4113 33.625 33.625C33.625 32.84 33.5875 32.18 33.5338 31.635C33.4013 30.3075 32.2987 29.45 30.965 29.3913C29.98 29.3488 28.6025 29.3063 26.7212 29.2788C26.7038 27.8637 26.6663 26.449 26.6087 25.035C26.55 23.7013 25.6925 22.5975 24.365 22.4663C23.7036 22.4031 23.0394 22.3726 22.375 22.375C21.59 22.375 20.93 22.4125 20.385 22.4663Z" fill="#B4EDE5"/>
<path d="M13.6575 6.75C14.3475 4.22 16.52 2.3925 19.2488 2.19625C22.4438 1.96625 27.1688 1.75 33.625 1.75C40.0425 1.75 44.7475 1.96375 47.9412 2.1925C51.1375 2.42 53.5812 4.8625 53.8087 8.06C54.0375 11.2538 54.2512 15.96 54.2512 22.375C54.2512 28.8312 54.035 33.555 53.805 36.75C53.6088 39.4788 51.78 41.6525 49.2512 42.3412" stroke="#434447" stroke-width="3" stroke-linecap="round" stroke-linejoin="round"/>
<path d="M42.5575 19.3088C42.33 16.1125 39.8875 13.6713 36.69 13.4425C33.4962 13.2125 28.79 13 22.375 13C15.9588 13 11.2538 13.2138 8.06 13.4425C4.8625 13.67 2.42 16.1125 2.1925 19.31C1.9625 22.5025 1.75 27.2088 1.75 33.625C1.75 40.0412 1.96375 44.7462 2.1925 47.9412C2.42 51.1375 4.8625 53.5787 8.06 53.8075C11.2538 54.0362 15.96 54.25 22.375 54.25C28.7912 54.25 33.4962 54.0362 36.69 53.8075C39.8875 53.58 42.33 51.1375 42.5575 47.94C42.7862 44.7462 43 40.04 43 33.625C43 27.2088 42.7862 22.5038 42.5575 19.3088Z" stroke="#434447" stroke-width="3" stroke-linecap="round" stroke-linejoin="round"/>
<path d="M24.365 44.7838C25.6925 44.6513 26.55 43.5475 26.6087 42.215C26.6512 41.23 26.6937 39.8525 26.7212 37.9713C28.1363 37.9536 29.551 37.9161 30.965 37.8588C32.2987 37.8 33.4025 36.9425 33.5338 35.615C33.5875 35.07 33.625 34.4113 33.625 33.625C33.625 32.84 33.5875 32.18 33.5338 31.635C33.4013 30.3075 32.2987 29.45 30.965 29.3913C29.98 29.3488 28.6025 29.3063 26.7212 29.2788C26.7038 27.8637 26.6663 26.449 26.6087 25.035C26.55 23.7013 25.6925 22.5975 24.365 22.4663C23.7036 22.4031 23.0394 22.3726 22.375 22.375C21.59 22.375 20.93 22.4125 20.385 22.4663C19.0575 22.5988 18.2 23.7013 18.1413 25.035C18.0988 26.02 18.0563 27.3975 18.0288 29.2788C16.6137 29.2964 15.199 29.3339 13.785 29.3913C12.4525 29.45 11.3475 30.3075 11.2162 31.635C11.1625 32.18 11.125 32.8388 11.125 33.625C11.125 34.41 11.1625 35.07 11.2162 35.615C11.3487 36.9425 12.4525 37.8 13.785 37.8588C14.77 37.9013 16.1475 37.9438 18.0288 37.9713C18.0563 39.8513 18.0988 41.23 18.1413 42.215C18.2 43.5475 19.0575 44.6525 20.385 44.7838C20.93 44.8375 21.5887 44.875 22.375 44.875C23.16 44.875 23.82 44.8375 24.365 44.7838Z" stroke="#434447" stroke-width="3" stroke-linecap="round" stroke-linejoin="round"/>
</svg>
