<svg width="56" height="56" viewBox="0 0 56 56" fill="none" xmlns="http://www.w3.org/2000/svg">
<path d="M39.4622 33.8186C40.9151 31.3853 41.75 28.5401 41.75 25.5C41.75 16.5254 34.4746 9.25 25.5 9.25C16.5254 9.25 9.25 16.5254 9.25 25.5C9.25 34.4746 16.5254 41.75 25.5 41.75C28.5833 41.75 31.4659 40.8914 33.9219 39.4001C33.9447 39.4276 33.9676 39.4552 33.9904 39.4827C35.3661 41.1425 36.7201 42.776 38.2364 44.3869C39.5936 45.8288 41.642 46.0129 43.081 44.6525C43.3381 44.4094 43.6175 44.1381 43.9201 43.8355C44.2227 43.5329 44.494 43.2535 44.7371 42.9964C46.0975 41.5574 45.9132 39.509 44.4714 38.1517C42.8606 36.6355 41.2271 35.2815 39.5674 33.9059C39.5322 33.8768 39.4972 33.8477 39.4622 33.8186Z" fill="#B4EDE5"/>
<path d="M18 25.5C18 26.4849 18.194 27.4602 18.5709 28.3701C18.9478 29.2801 19.5003 30.1069 20.1967 30.8033C20.8931 31.4997 21.7199 32.0522 22.6299 32.4291C23.5398 32.806 24.5151 33 25.5 33C26.4849 33 27.4602 32.806 28.3701 32.4291C29.2801 32.0522 30.1069 31.4997 30.8033 30.8033C31.4997 30.1069 32.0522 29.2801 32.4291 28.3701C32.806 27.4602 33 26.4849 33 25.5C33 24.5151 32.806 23.5398 32.4291 22.6299C32.0522 21.7199 31.4997 20.8931 30.8033 20.1967C30.1069 19.5003 29.2801 18.9478 28.3701 18.5709C27.4602 18.194 26.4849 18 25.5 18C24.5151 18 23.5398 18.194 22.6299 18.5709C21.7199 18.9478 20.8931 19.5003 20.1967 20.1967C19.5003 20.8931 18.9478 21.7199 18.5709 22.6299C18.194 23.5398 18 24.5151 18 25.5Z" fill="white"/>
<path d="M14.25 1.75C14.25 1.75 10.3926 1.75005 6.30486 1.99169C3.97047 2.12968 2.13024 3.96962 1.99204 6.30401C1.75 10.3923 1.75 14.25 1.75 14.25M41.75 1.75C41.75 1.75 45.6074 1.75005 49.6951 1.99169C52.0295 2.12968 53.8698 3.96962 54.008 6.30401C54.25 10.3923 54.25 14.25 54.25 14.25M41.75 54.25C41.75 54.25 45.6074 54.25 49.6951 54.0084C52.0295 53.8704 53.8698 52.0304 54.008 49.696C54.25 45.6076 54.25 41.75 54.25 41.75M14.25 54.25C14.25 54.25 10.3926 54.25 6.30486 54.0084C3.97047 53.8704 2.13024 52.0304 1.99204 49.696C1.75 45.6076 1.75 41.75 1.75 41.75" stroke="#434447" stroke-width="3" stroke-linecap="round" stroke-linejoin="round"/>
<path d="M39.4619 33.8186C40.9149 31.3852 41.7497 28.5401 41.7497 25.5C41.7497 16.5254 34.4744 9.25 25.4997 9.25C16.5251 9.25 9.2497 16.5254 9.2497 25.5C9.2497 34.4746 16.5251 41.75 25.4997 41.75C28.5829 41.75 31.4656 40.8914 33.9216 39.4001C33.9444 39.4276 33.9672 39.4552 33.9901 39.4827C35.3659 41.1425 36.7199 42.776 38.236 44.3869C39.5932 45.8288 41.6416 46.0129 43.0806 44.6525C43.3379 44.4094 43.6171 44.1381 43.9197 43.8355C44.2224 43.5329 44.4937 43.2535 44.7369 42.9964C46.0971 41.5574 45.913 39.509 44.4711 38.1517C42.8604 36.6355 41.2267 35.2815 39.567 33.9059C39.532 33.8768 39.497 33.8477 39.4619 33.8186Z" stroke="#434447" stroke-width="3" stroke-linecap="round" stroke-linejoin="round"/>
<path d="M18 25.5C18 26.4849 18.194 27.4602 18.5709 28.3701C18.9478 29.2801 19.5003 30.1069 20.1967 30.8033C20.8931 31.4997 21.7199 32.0522 22.6299 32.4291C23.5398 32.806 24.5151 33 25.5 33C26.4849 33 27.4602 32.806 28.3701 32.4291C29.2801 32.0522 30.1069 31.4997 30.8033 30.8033C31.4997 30.1069 32.0522 29.2801 32.4291 28.3701C32.806 27.4602 33 26.4849 33 25.5C33 24.5151 32.806 23.5398 32.4291 22.6299C32.0522 21.7199 31.4997 20.8931 30.8033 20.1967C30.1069 19.5003 29.2801 18.9478 28.3701 18.5709C27.4602 18.194 26.4849 18 25.5 18C24.5151 18 23.5398 18.194 22.6299 18.5709C21.7199 18.9478 20.8931 19.5003 20.1967 20.1967C19.5003 20.8931 18.9478 21.7199 18.5709 22.6299C18.194 23.5398 18 24.5151 18 25.5Z" stroke="#434447" stroke-width="3" stroke-linecap="round" stroke-linejoin="round"/>
</svg>
